<svg width="200" height="200" viewBox="0 0 200 200" fill="none" xmlns="http://www.w3.org/2000/svg">
<circle cx="100" cy="100" r="100" fill="#15181D"/>
<path d="M93.2397 50.0055C93.1484 50.0055 93.057 50.0083 92.9657 50.0125L91.4225 50.0941C91.28 50.101 91.1374 50.1163 90.9948 50.1356L89.4627 50.346C89.3216 50.3654 89.1804 50.3903 89.0406 50.4221L87.532 50.7598C87.3922 50.7903 87.2538 50.8276 87.1182 50.8706L85.6428 51.3328C85.5058 51.3757 85.3715 51.4242 85.2401 51.4781L83.8076 52.0608C83.6747 52.1148 83.5446 52.1743 83.4173 52.2394L82.0388 52.9397C81.9115 53.0047 81.7869 53.0739 81.6651 53.1487L80.3503 53.9611C80.2285 54.0358 80.1109 54.1161 79.9946 54.2005L78.7504 55.1195C78.6327 55.2067 78.5192 55.2981 78.4085 55.3963L77.1864 56.4717C77.0743 56.5714 76.965 56.6752 76.8612 56.7845L75.7387 57.9623C75.6349 58.0716 75.5367 58.1851 75.4425 58.3014L74.4281 59.5733C74.3339 59.6909 74.2454 59.8127 74.1623 59.9373L73.2627 61.2936C73.1797 61.4182 73.1022 61.5483 73.0302 61.6798L72.2537 63.1095C72.1818 63.2424 72.1167 63.3766 72.0558 63.515L71.4067 65.007C71.3472 65.1454 71.2932 65.2852 71.2448 65.4277L70.7286 66.9709C70.6815 67.1135 70.64 67.2574 70.604 67.4041L70.2262 68.9861C70.1916 69.1328 70.1625 69.2795 70.1403 69.429L69.9023 71.0386C69.8801 71.188 69.8649 71.3375 69.8552 71.487L69.7583 73.1105C69.7487 73.2613 69.7473 73.4122 69.7514 73.5617L69.7971 75.1879C69.8013 75.3387 69.8123 75.4882 69.8289 75.6377L70.0172 77.2542C70.0338 77.4037 70.0587 77.5518 70.0877 77.6985L70.4171 79.2915C70.4476 79.4396 70.485 79.5849 70.5279 79.7289L70.9957 81.2873C71.0386 81.4312 71.0884 81.5738 71.1438 81.7122L71.7458 83.2235C71.8012 83.3633 71.8635 83.5003 71.9313 83.6346L72.6634 85.0878C72.7312 85.2221 72.8046 85.3536 72.8835 85.4809L73.7402 86.8635C73.8191 86.9922 73.9035 87.1154 73.9949 87.2358L74.9692 88.5382C75.0592 88.6586 75.1547 88.7749 75.2543 88.887L76.3394 90.0994C76.439 90.2115 76.5442 90.3194 76.6549 90.4219L77.8411 91.5346C77.9504 91.637 78.0653 91.7353 78.1829 91.828L79.4631 92.8328C79.5808 92.9256 79.704 93.0128 79.8299 93.0958L81.1932 93.9843C81.3191 94.066 81.4478 94.1421 81.5807 94.2141L83.0159 94.9795C83.1488 95.05 83.2844 95.1151 83.4228 95.1746L84.9204 95.8112C85.0588 95.8708 85.1999 95.9234 85.3425 95.9704L86.8898 96.4742C87.0338 96.5213 87.1777 96.5614 87.3244 96.5946L88.9091 96.9614C89.0558 96.996 89.2039 97.0223 89.352 97.043L90.88 97.2576C91.0281 97.2811 91.1803 97.2977 91.3325 97.3074C91.4502 97.3157 91.5678 97.3198 91.6841 97.3198C91.7118 97.3198 91.7381 97.3198 91.7657 97.3198H144.355C147.196 97.3198 149.499 95.0168 149.499 92.1754C149.499 89.334 147.196 87.031 144.355 87.031H92.037L91.0045 86.8857L89.8599 86.6213L88.7416 86.2573L87.6593 85.7978L86.6227 85.2442L85.6387 84.602L84.7141 83.8754L83.856 83.0713L83.0727 82.1952L82.3682 81.2541L81.7495 80.2548L81.2209 79.2043L80.7863 78.1123L80.4486 76.9871L80.2105 75.8356L80.0749 74.6689L80.0417 73.4938L80.1109 72.3202L80.2825 71.1576L80.5565 70.0144L80.9288 68.9003L81.398 67.8221L81.9585 66.7882L82.6076 65.8083L83.3412 64.8893L84.1522 64.0382L85.0394 63.2562L85.9335 62.596L86.8843 62.0092L87.8808 61.5026L88.916 61.0819L89.9817 60.7483L91.0723 60.5048L92.1796 60.3525L93.2951 60.293L94.412 60.3262L95.522 60.4522L96.6168 60.6708L97.6908 60.9795L98.7343 61.3767L99.7419 61.8597L100.705 62.4244L101.619 63.0666L102.475 63.7835L103.27 64.5696L103.996 65.4194L104.648 66.326L105.224 67.2837L105.717 68.2857L106.125 69.3265L106.507 70.6026C107.174 72.8323 109.22 74.2744 111.433 74.2744C111.921 74.2744 112.417 74.2038 112.91 74.0571C115.63 73.2433 117.178 70.377 116.364 67.6546L115.921 66.1737C115.88 66.0367 115.834 65.9025 115.781 65.7682L115.217 64.3288C115.164 64.196 115.107 64.0645 115.044 63.9371L114.361 62.5503C114.299 62.4216 114.23 62.2957 114.157 62.1739L113.361 60.848C113.287 60.7248 113.208 60.6058 113.125 60.4895L112.222 59.2342C112.139 59.118 112.05 59.0059 111.957 58.8965L110.952 57.7215C110.86 57.6135 110.761 57.5083 110.66 57.4087L109.562 56.3208C109.461 56.2198 109.354 56.1243 109.245 56.033L108.058 55.0406C107.949 54.9493 107.836 54.8621 107.718 54.779L106.454 53.8891C106.338 53.8075 106.218 53.7299 106.093 53.6566L104.759 52.8746C104.636 52.8027 104.508 52.7348 104.381 52.6739L102.986 52.0055C102.857 51.9432 102.726 51.8878 102.593 51.8366L101.148 51.2871C101.015 51.2359 100.88 51.1916 100.741 51.1515L99.2547 50.7238C99.1177 50.6837 98.9779 50.6505 98.8381 50.6228L97.3212 50.3211C97.1814 50.2934 97.0403 50.2713 96.8977 50.2547L95.3614 50.0803C95.2203 50.0637 95.0777 50.054 94.9338 50.0498L93.3878 50.0028C93.3366 50.0014 93.284 50 93.2328 50L93.2397 50.0055ZM107.814 102.682C107.786 102.682 107.76 102.682 107.733 102.682H55.1444C52.303 102.682 50 104.985 50 107.826C50 110.667 52.303 112.97 55.1444 112.97H107.462L108.494 113.116L109.64 113.38L110.759 113.744L111.84 114.205L112.876 114.759L113.862 115.401L114.786 116.126L115.644 116.93L116.428 117.806L117.132 118.747L117.751 119.747L118.28 120.797L118.714 121.889L119.052 123.014L119.29 124.166L119.425 125.334L119.459 126.509L119.39 127.683L119.217 128.845L118.942 129.988L118.57 131.104L118.102 132.182L117.54 133.215L116.891 134.194L116.158 135.113L115.347 135.965L114.461 136.745L113.567 137.405L112.616 137.992L111.62 138.499L110.584 138.919L109.519 139.253L108.428 139.497L107.321 139.649L106.205 139.708L105.088 139.675L103.978 139.549L102.882 139.331L101.808 139.022L100.763 138.625L99.7557 138.142L98.7924 137.577L97.879 136.933L97.0223 136.216L96.2278 135.43L95.5026 134.582L94.8493 133.675L94.275 132.718L93.7809 131.716L93.3726 130.675L92.9906 129.399C92.3235 127.169 90.2793 125.727 88.0649 125.727C87.5763 125.727 87.0808 125.798 86.5895 125.944C83.8671 126.758 82.3212 129.624 83.135 132.347L83.5778 133.828C83.6194 133.965 83.665 134.1 83.7176 134.233L84.2823 135.673C84.3349 135.805 84.393 135.937 84.4553 136.064L85.1376 137.451C85.2013 137.58 85.2691 137.706 85.3425 137.827L86.1383 139.153C86.213 139.275 86.2905 139.396 86.3736 139.512L87.2773 140.767C87.3618 140.883 87.449 140.996 87.5417 141.103L88.5465 142.279C88.6392 142.388 88.7361 142.492 88.8385 142.593L89.9374 143.681C90.0385 143.782 90.145 143.877 90.2544 143.97L91.4405 144.962C91.5498 145.053 91.6633 145.141 91.7796 145.224L93.0446 146.114C93.1608 146.197 93.2812 146.274 93.4044 146.345L94.7386 147.127C94.8618 147.199 94.9878 147.265 95.1165 147.327L96.5102 147.995C96.6389 148.055 96.7704 148.114 96.9046 148.163L98.3496 148.713C98.4824 148.764 98.6194 148.81 98.7565 148.848L100.242 149.276C100.379 149.316 100.518 149.35 100.658 149.377L102.174 149.679C102.315 149.707 102.456 149.729 102.597 149.745L104.133 149.921C104.276 149.938 104.419 149.947 104.561 149.952L106.107 149.999C106.158 149.999 106.209 150 106.262 150C106.353 150 106.445 149.997 106.536 149.993L108.081 149.911C108.223 149.903 108.366 149.891 108.507 149.871L110.039 149.661C110.18 149.642 110.321 149.617 110.461 149.585L111.97 149.247C112.11 149.215 112.247 149.179 112.384 149.136L113.859 148.674C113.995 148.631 114.13 148.583 114.262 148.529L115.694 147.946C115.827 147.892 115.956 147.833 116.084 147.768L117.463 147.067C117.59 147.002 117.715 146.932 117.837 146.857L119.151 146.044C119.273 145.97 119.391 145.889 119.507 145.805L120.75 144.886C120.868 144.799 120.983 144.706 121.092 144.609L122.313 143.534C122.426 143.436 122.534 143.33 122.638 143.221L123.76 142.043C123.864 141.934 123.962 141.822 124.056 141.703L125.071 140.431C125.165 140.313 125.254 140.191 125.337 140.067L126.236 138.711C126.319 138.585 126.397 138.456 126.469 138.324L127.245 136.895C127.317 136.763 127.384 136.628 127.443 136.489L128.092 134.997C128.152 134.859 128.206 134.719 128.254 134.576L128.769 133.033C128.816 132.891 128.858 132.745 128.894 132.6L129.271 131.018C129.306 130.871 129.335 130.725 129.357 130.575L129.595 128.967C129.617 128.817 129.633 128.668 129.642 128.519L129.739 126.895C129.749 126.744 129.75 126.595 129.746 126.444L129.7 124.818C129.696 124.667 129.685 124.517 129.667 124.368L129.479 122.751C129.462 122.602 129.438 122.454 129.407 122.307L129.078 120.714C129.047 120.566 129.01 120.421 128.967 120.277L128.499 118.718C128.456 118.574 128.406 118.432 128.351 118.292L127.749 116.781C127.694 116.641 127.631 116.504 127.564 116.37L126.831 114.916C126.764 114.782 126.69 114.651 126.611 114.523L125.755 113.139C125.676 113.012 125.591 112.887 125.501 112.767L124.527 111.465C124.437 111.344 124.342 111.228 124.242 111.116L123.157 109.903C123.056 109.791 122.951 109.683 122.841 109.581L121.654 108.468C121.544 108.366 121.43 108.267 121.312 108.175L120.032 107.17C119.913 107.077 119.791 106.989 119.665 106.907L118.302 106.018C118.176 105.937 118.046 105.859 117.913 105.789L116.478 105.023C116.345 104.953 116.209 104.888 116.071 104.828L114.573 104.19C114.435 104.132 114.294 104.079 114.151 104.032L112.604 103.529C112.461 103.482 112.316 103.443 112.169 103.408L110.584 103.043C110.438 103.008 110.29 102.982 110.14 102.961L108.612 102.747C108.463 102.723 108.312 102.706 108.16 102.697C108.042 102.688 107.926 102.684 107.808 102.684L107.814 102.682Z" fill="white"/>
</svg>
